<svg width="19" height="18" viewBox="0 0 19 18" fill="none" xmlns="http://www.w3.org/2000/svg">
<g clip-path="url(#clip0_376_13285)">
<path d="M15.2145 2.48912L14 1.27316C13.6602 0.931631 13.256 0.660882 12.8109 0.476585C12.3658 0.292288 11.8885 0.198102 11.4067 0.199478H6.75484C5.78266 0.200642 4.85064 0.587355 4.1632 1.27479C3.47577 1.96222 3.08906 2.89425 3.08789 3.86643V14.1339C3.08906 15.1061 3.47577 16.0381 4.1632 16.7255C4.85064 17.413 5.78266 17.7997 6.75484 17.8009H12.622C13.5941 17.7997 14.5262 17.413 15.2136 16.7255C15.901 16.0381 16.2878 15.1061 16.2889 14.1339V5.08166C16.2901 4.59996 16.1958 4.1228 16.0113 3.6778C15.8269 3.23279 15.5561 2.82878 15.2145 2.48912ZM14.1775 3.52614C14.2815 3.62978 14.3747 3.74381 14.4554 3.86643H12.622V2.03295C12.7444 2.1146 12.8586 2.20793 12.963 2.31164L14.1775 3.52614ZM14.8221 14.1339C14.8221 14.7174 14.5903 15.277 14.1777 15.6897C13.7651 16.1023 13.2055 16.3341 12.622 16.3341H6.75484C6.17132 16.3341 5.6117 16.1023 5.19909 15.6897C4.78648 15.277 4.55467 14.7174 4.55467 14.1339V3.86643C4.55467 3.28291 4.78648 2.72329 5.19909 2.31067C5.6117 1.89806 6.17132 1.66626 6.75484 1.66626H11.1552V3.86643C11.1552 4.25545 11.3097 4.62853 11.5848 4.9036C11.8599 5.17868 12.233 5.33321 12.622 5.33321H14.8221V14.1339ZM12.622 6.79999C12.8165 6.79999 13.003 6.87726 13.1406 7.0148C13.2781 7.15234 13.3554 7.33888 13.3554 7.53338C13.3554 7.72789 13.2781 7.91443 13.1406 8.05197C13.003 8.18951 12.8165 8.26677 12.622 8.26677H6.75484C6.56034 8.26677 6.3738 8.18951 6.23626 8.05197C6.09872 7.91443 6.02145 7.72789 6.02145 7.53338C6.02145 7.33888 6.09872 7.15234 6.23626 7.0148C6.3738 6.87726 6.56034 6.79999 6.75484 6.79999H12.622ZM13.3554 10.4669C13.3554 10.6615 13.2781 10.848 13.1406 10.9855C13.003 11.1231 12.8165 11.2003 12.622 11.2003H6.75484C6.56034 11.2003 6.3738 11.1231 6.23626 10.9855C6.09872 10.848 6.02145 10.6615 6.02145 10.4669C6.02145 10.2724 6.09872 10.0859 6.23626 9.94836C6.3738 9.81082 6.56034 9.73356 6.75484 9.73356H12.622C12.8165 9.73356 13.003 9.81082 13.1406 9.94836C13.2781 10.0859 13.3554 10.2724 13.3554 10.4669ZM13.2145 12.97C13.3286 13.1268 13.3758 13.3224 13.346 13.514C13.3162 13.7056 13.2117 13.8776 13.0554 13.9924C12.3123 14.5218 11.4323 14.8256 10.5208 14.8673C9.98827 14.8647 9.47192 14.684 9.05402 14.3539C8.81347 14.1889 8.7218 14.1339 8.54065 14.1339C8.05032 14.2098 7.58769 14.4103 7.19708 14.7162C7.04215 14.8267 6.85036 14.8726 6.66221 14.8442C6.47406 14.8159 6.30428 14.7156 6.18873 14.5644C6.07317 14.4133 6.02088 14.2231 6.0429 14.0341C6.06492 13.8452 6.15953 13.6721 6.30674 13.5516C6.95299 13.0499 7.72899 12.7431 8.54358 12.6671C9.03212 12.6749 9.50442 12.8438 9.88716 13.1475C10.0616 13.3044 10.2862 13.3941 10.5208 13.4005C11.1205 13.3556 11.6971 13.1507 12.1907 12.8072C12.3481 12.6931 12.5444 12.6462 12.7363 12.6767C12.9283 12.7072 13.1003 12.8127 13.2145 12.97Z" fill="#004AAD"/>
</g>
<defs>
<clipPath id="clip0_376_13285">
<rect width="17.6014" height="17.6014" fill="white" transform="translate(0.887695 0.199341)"/>
</clipPath>
</defs>
</svg>
