<svg width="469" height="46" viewBox="0 0 469 46" fill="none" xmlns="http://www.w3.org/2000/svg">
<path d="M0.138672 0.072937H10.3053V27.9063H27.4303V35.9688H0.138672V0.072937Z" fill="#004AAD"/>
<path d="M37.5977 7.69794C42.207 7.69794 45.7279 8.75523 48.1602 10.8646C50.5872 12.9636 51.806 16.1875 51.806 20.5313V35.9688H42.7227V32.3854C41.3164 35.0834 38.582 36.4271 34.5143 36.4271C32.3581 36.4271 30.4987 36.0521 28.931 35.3021C27.3581 34.5521 26.1706 33.5417 25.3685 32.2604C24.5612 30.9688 24.1602 29.5052 24.1602 27.8646C24.1602 25.2292 25.1654 23.1875 27.181 21.7396C29.1914 20.2813 32.306 19.5521 36.5143 19.5521H42.056C41.8893 16.6094 39.9206 15.1354 36.1602 15.1354C34.8268 15.1354 33.4727 15.3542 32.0977 15.7813C30.7331 16.2136 29.5768 16.8021 28.6185 17.5521L25.3268 10.9479C26.8685 9.9219 28.7435 9.12502 30.9518 8.5521C33.1602 7.9844 35.3737 7.69794 37.5977 7.69794ZM37.2435 30.2813C38.3685 30.2813 39.3529 30.0104 40.2018 29.4688C41.0612 28.9167 41.681 28.1094 42.056 27.0521V24.6354H37.8477C35.0143 24.6354 33.5977 25.5729 33.5977 27.4479C33.5977 28.3125 33.9154 29 34.556 29.5104C35.207 30.0261 36.1029 30.2813 37.2435 30.2813Z" fill="black"/>
<path d="M76.6234 36.4271C73.5505 36.4271 70.8005 35.8177 68.3734 34.5938C65.9411 33.3594 64.0452 31.6511 62.6859 29.4688C61.3369 27.2761 60.665 24.7917 60.665 22.0104C60.665 19.25 61.3369 16.7813 62.6859 14.6146C64.0452 12.4375 65.9411 10.7396 68.3734 9.53127C70.8005 8.31252 73.5505 7.69794 76.6234 7.69794C79.7744 7.69794 82.4984 8.38023 84.79 9.7396C87.0817 11.0886 88.7067 12.9584 89.665 15.3438L82.1234 19.1979C80.8421 16.6979 78.9984 15.4479 76.5817 15.4479C74.8317 15.4479 73.3786 16.0313 72.2275 17.1979C71.0869 18.3646 70.5192 19.9688 70.5192 22.0104C70.5192 24.1094 71.0869 25.75 72.2275 26.9271C73.3786 28.0938 74.8317 28.6771 76.5817 28.6771C78.9984 28.6771 80.8421 27.4375 82.1234 24.9479L89.665 28.7813C88.7067 31.1875 87.0817 33.0625 84.79 34.4063C82.4984 35.7552 79.7744 36.4271 76.6234 36.4271Z" fill="#004AAD"/>
<path d="M153.404 7.69794C156.831 7.69794 159.56 8.72919 161.591 10.7813C163.633 12.8386 164.654 15.9375 164.654 20.0729V35.9688H154.904V21.6563C154.904 19.7136 154.534 18.2813 153.799 17.3646C153.06 16.4375 152.029 15.9688 150.695 15.9688C149.221 15.9688 148.039 16.4844 147.154 17.5104C146.263 18.5417 145.82 20.0938 145.82 22.1771V35.9688H136.07V21.6563C136.07 17.8646 134.664 15.9688 131.862 15.9688C130.362 15.9688 129.164 16.4844 128.279 17.5104C127.388 18.5417 126.945 20.0938 126.945 22.1771V35.9688H117.195V8.1771H126.487V11.0938C127.513 9.96877 128.737 9.12502 130.154 8.5521C131.57 7.9844 133.117 7.69794 134.799 7.69794C136.742 7.69794 138.487 8.06252 140.029 8.78127C141.57 9.50523 142.82 10.6042 143.779 12.0729C144.862 10.6719 146.242 9.59377 147.924 8.84377C149.602 8.08335 151.43 7.69794 153.404 7.69794Z" fill="black"/>
<path d="M183.053 7.69794C185.579 7.69794 187.876 8.29169 189.949 9.46877C192.016 10.6511 193.657 12.3334 194.865 14.5104C196.084 16.6771 196.699 19.1979 196.699 22.0729C196.699 24.9479 196.084 27.4688 194.865 29.6354C193.657 31.8021 192.016 33.4792 189.949 34.6563C187.876 35.8386 185.579 36.4271 183.053 36.4271C179.803 36.4271 177.219 35.4584 175.303 33.5104V45.9271H165.553V8.1771H174.844V10.9479C176.646 8.78127 179.386 7.69794 183.053 7.69794ZM180.99 28.6771C182.699 28.6771 184.1 28.0938 185.199 26.9271C186.292 25.75 186.844 24.1302 186.844 22.0729C186.844 20.0209 186.292 18.4011 185.199 17.2188C184.1 16.0417 182.699 15.4479 180.99 15.4479C179.282 15.4479 177.876 16.0417 176.782 17.2188C175.699 18.4011 175.157 20.0209 175.157 22.0729C175.157 24.1302 175.699 25.75 176.782 26.9271C177.876 28.0938 179.282 28.6771 180.99 28.6771Z" fill="black"/>
<path d="M215.149 34.8438C214.326 35.3594 213.326 35.7501 212.149 36.0105C210.967 36.2865 209.712 36.4271 208.378 36.4271C204.753 36.4271 201.962 35.5417 200.003 33.7605C198.055 31.9844 197.087 29.3386 197.087 25.823V16.4688H193.045V9.19798H197.087V1.96881H206.837V9.19798H213.191V16.4688H206.837V25.7188C206.837 26.7084 207.097 27.4844 207.628 28.0521C208.154 28.6094 208.863 28.8855 209.753 28.8855C210.889 28.8855 211.883 28.5938 212.732 28.0105L215.149 34.8438Z" fill="black"/>
<path d="M225.506 7.69794C230.115 7.69794 233.636 8.75523 236.068 10.8646C238.495 12.9636 239.714 16.1875 239.714 20.5313V35.9688H230.631V32.3854C229.225 35.0834 226.49 36.4271 222.423 36.4271C220.266 36.4271 218.407 36.0521 216.839 35.3021C215.266 34.5521 214.079 33.5417 213.277 32.2604C212.469 30.9688 212.068 29.5052 212.068 27.8646C212.068 25.2292 213.074 23.1875 215.089 21.7396C217.1 20.2813 220.214 19.5521 224.423 19.5521H229.964C229.798 16.6094 227.829 15.1354 224.068 15.1354C222.735 15.1354 221.381 15.3542 220.006 15.7813C218.641 16.2136 217.485 16.8021 216.527 17.5521L213.235 10.9479C214.777 9.9219 216.652 9.12502 218.86 8.5521C221.068 7.9844 223.282 7.69794 225.506 7.69794ZM225.152 30.2813C226.277 30.2813 227.261 30.0104 228.11 29.4688C228.969 28.9167 229.589 28.1094 229.964 27.0521V24.6354H225.756C222.923 24.6354 221.506 25.5729 221.506 27.4479C221.506 28.3125 221.824 29 222.464 29.5104C223.115 30.0261 224.011 30.2813 225.152 30.2813Z" fill="black"/>
<path d="M267.82 7.69794C270.346 7.69794 272.643 8.29169 274.716 9.46877C276.784 10.6511 278.424 12.3334 279.633 14.5104C280.852 16.6771 281.466 19.1979 281.466 22.0729C281.466 24.9479 280.852 27.4688 279.633 29.6354C278.424 31.8021 276.784 33.4792 274.716 34.6563C272.643 35.8386 270.346 36.4271 267.82 36.4271C264.57 36.4271 261.987 35.4584 260.07 33.5104V45.9271H250.32V8.1771H259.612V10.9479C261.414 8.78127 264.154 7.69794 267.82 7.69794ZM265.758 28.6771C267.466 28.6771 268.867 28.0938 269.966 26.9271C271.06 25.75 271.612 24.1302 271.612 22.0729C271.612 20.0209 271.06 18.4011 269.966 17.2188C268.867 16.0417 267.466 15.4479 265.758 15.4479C264.049 15.4479 262.643 16.0417 261.549 17.2188C260.466 18.4011 259.924 20.0209 259.924 22.0729C259.924 24.1302 260.466 25.75 261.549 26.9271C262.643 28.0938 264.049 28.6771 265.758 28.6771Z" fill="#004AAD"/>
<path d="M339.071 8.17706V35.9687H329.779V32.9896C328.748 34.1146 327.514 34.9687 326.071 35.5521C324.639 36.1354 323.123 36.4271 321.529 36.4271C317.93 36.4271 315.061 35.375 312.925 33.2604C310.785 31.1354 309.717 27.9583 309.717 23.7187V8.17706H319.467V22.1146C319.467 24.1979 319.852 25.7187 320.633 26.6771C321.425 27.6354 322.576 28.1146 324.092 28.1146C325.618 28.1146 326.868 27.5833 327.842 26.5104C328.826 25.4271 329.321 23.776 329.321 21.5521V8.17706H339.071Z" fill="black"/>
<path d="M349.368 11.5104C350.352 10.25 351.639 9.2969 353.222 8.65627C354.816 8.02085 356.644 7.69794 358.701 7.69794V16.4688C357.811 16.375 357.076 16.3229 356.493 16.3229C354.41 16.3229 352.774 16.8959 351.597 18.0313C350.415 19.1563 349.826 20.8802 349.826 23.1979V35.9688H340.076V8.1771H349.368V11.5104Z" fill="black"/>
<path d="M386.446 34.8438C385.623 35.3594 384.623 35.7501 383.446 36.0105C382.264 36.2865 381.008 36.4271 379.675 36.4271C376.05 36.4271 373.258 35.5417 371.3 33.7605C369.352 31.9844 368.383 29.3386 368.383 25.823V16.4688H364.342V9.19798H368.383V1.96881H378.133V9.19798H384.488V16.4688H378.133V25.7188C378.133 26.7084 378.394 27.4844 378.925 28.0521C379.451 28.6094 380.16 28.8855 381.05 28.8855C382.186 28.8855 383.18 28.5938 384.029 28.0105L386.446 34.8438Z" fill="#004AAD"/>
<path d="M443.29 8.17706V35.9687H433.998V32.9896C432.967 34.1146 431.732 34.9687 430.29 35.5521C428.857 36.1354 427.342 36.4271 425.748 36.4271C422.149 36.4271 419.279 35.375 417.144 33.2604C415.003 31.1354 413.936 27.9583 413.936 23.7187V8.17706H423.686V22.1146C423.686 24.1979 424.071 25.7187 424.852 26.6771C425.644 27.6354 426.795 28.1146 428.311 28.1146C429.837 28.1146 431.087 27.5833 432.061 26.5104C433.045 25.4271 433.54 23.776 433.54 21.5521V8.17706H443.29Z" fill="black"/>
<path d="M454.398 36.4271C452.076 36.4271 449.784 36.1615 447.523 35.6354C445.273 35.1094 443.461 34.4167 442.086 33.5521L445.023 26.8854C446.284 27.6771 447.784 28.3021 449.523 28.7604C451.273 29.2188 453.003 29.4479 454.711 29.4479C456.279 29.4479 457.398 29.2917 458.065 28.9688C458.732 28.6511 459.065 28.1771 459.065 27.5521C459.065 26.9427 458.659 26.5104 457.857 26.2604C457.065 26 455.794 25.75 454.044 25.5104C451.82 25.2344 449.93 24.875 448.378 24.4271C446.82 23.9844 445.471 23.1667 444.336 21.9688C443.211 20.7761 442.648 19.1042 442.648 16.9479C442.648 15.1719 443.174 13.5886 444.232 12.1979C445.299 10.8125 446.846 9.71356 448.878 8.90627C450.919 8.10419 453.357 7.69794 456.19 7.69794C458.216 7.69794 460.216 7.90627 462.19 8.32294C464.174 8.7396 465.836 9.32294 467.169 10.0729L464.253 16.6771C461.794 15.3177 459.128 14.6354 456.253 14.6354C454.711 14.6354 453.576 14.8177 452.857 15.1771C452.148 15.5417 451.794 16.0052 451.794 16.5729C451.794 17.2292 452.18 17.6875 452.961 17.9479C453.753 18.1979 455.049 18.4636 456.857 18.7396C459.148 19.0729 461.044 19.4636 462.544 19.9063C464.055 20.3542 465.367 21.1667 466.482 22.3438C467.591 23.5261 468.148 25.1771 468.148 27.3021C468.148 29.0417 467.612 30.6042 466.544 31.9896C465.487 33.3802 463.924 34.4688 461.857 35.2604C459.784 36.0365 457.299 36.4271 454.398 36.4271Z" fill="black"/>
<mask id="mask0_1_2968" style="mask-type:luminance" maskUnits="userSpaceOnUse" x="87" y="8" width="28" height="29">
<path d="M87.5244 8.80219H114.894V36.2605H87.5244V8.80219Z" fill="white"/>
</mask>
<g mask="url(#mask0_1_2968)">
<path d="M113.181 29.1668C112.723 29.1668 112.327 29.3543 111.993 29.6616C111.79 29.8491 111.587 30.0262 111.374 30.1928C110.691 30.7032 109.957 31.1303 109.181 31.4793C108.368 31.8074 107.52 32.0366 106.655 32.172C105.764 32.2762 104.868 32.2762 103.978 32.172C103.113 32.0366 102.27 31.8074 101.452 31.4793C100.671 31.1303 99.931 30.6928 99.2435 30.1824C98.582 29.646 97.9831 29.0418 97.4466 28.3751C97.1862 28.021 96.9414 27.6512 96.7227 27.271H104.884C105.837 27.271 106.603 26.5157 106.603 25.5835C106.603 24.6564 105.837 23.9012 104.884 23.9012H95.5143C95.4987 23.8074 95.4831 23.7137 95.4674 23.6199C95.3633 22.7241 95.3633 21.823 95.4674 20.9324C95.4831 20.8387 95.4987 20.7449 95.5143 20.6512H104.884C105.837 20.6512 106.603 19.896 106.603 18.9689C106.603 18.0366 105.837 17.2814 104.884 17.2814H96.7227C96.9414 16.9012 97.1862 16.5314 97.4466 16.172C97.9831 15.5053 98.582 14.9012 99.2435 14.3699C99.931 13.8543 100.671 13.422 101.452 13.0678C102.27 12.7449 103.113 12.5105 103.983 12.3751C104.868 12.2762 105.77 12.2762 106.655 12.3751C107.52 12.5105 108.368 12.7449 109.181 13.0678C109.957 13.4168 110.691 13.8491 111.374 14.3543C111.587 14.5262 111.79 14.698 111.993 14.8855C112.327 15.1928 112.723 15.3803 113.181 15.3803C113.629 15.3803 114.061 15.2032 114.374 14.8855C114.999 14.2553 115.051 13.1199 114.374 12.4949C113.702 11.8751 112.967 11.3126 112.186 10.8335C111.4 10.3543 110.546 9.96887 109.681 9.65637C108.915 9.38033 108.118 9.18762 107.316 9.07825C106.395 8.95325 105.488 8.88033 104.561 8.94283C103.738 8.99491 102.915 9.11471 102.118 9.30741C101.332 9.49491 100.587 9.78658 99.8477 10.1095C98.5195 10.6824 97.306 11.5314 96.2435 12.5157C95.6602 13.0522 95.1602 13.6564 94.681 14.2866C94.2747 14.8074 93.9154 15.3647 93.6081 15.948C93.3789 16.3803 93.1706 16.8282 92.9883 17.2814H89.8945C88.9466 17.2814 88.1758 18.0366 88.1758 18.9689C88.1758 19.9012 88.9466 20.6512 89.8945 20.6512H92.1341C92.056 21.3178 92.0091 21.9845 92.0299 22.6564C92.0404 23.073 92.0768 23.4897 92.1289 23.9012H89.8945C88.9466 23.9012 88.1758 24.6564 88.1758 25.5835C88.1758 26.5157 88.9466 27.271 89.8945 27.271H92.9987C93.2747 27.9428 93.582 28.5991 93.9622 29.2241C94.7122 30.4532 95.6654 31.5887 96.7799 32.5053C97.3893 33.0053 98.0247 33.4741 98.7122 33.8699C99.3997 34.2657 100.134 34.5887 100.884 34.8647C102.29 35.3855 103.822 35.6303 105.316 35.6355C106.28 35.6355 107.249 35.5157 108.186 35.3178C109.108 35.1251 109.978 34.797 110.837 34.422C112.139 33.8491 113.327 33.0157 114.374 32.0574C115.051 31.4324 114.999 30.297 114.374 29.6668C114.056 29.3491 113.629 29.1668 113.181 29.1668Z" fill="black"/>
</g>
<mask id="mask1_1_2968" style="mask-type:luminance" maskUnits="userSpaceOnUse" x="87" y="8" width="29" height="29">
<path d="M87.5244 8.26044H115.524V36.2604H87.5244V8.26044Z" fill="white"/>
</mask>
<g mask="url(#mask1_1_2968)">
<path d="M105.337 36.2604C105.332 36.2604 105.327 36.2604 105.316 36.2604C103.691 36.2604 102.077 35.9792 100.655 35.4531C99.7904 35.1354 99.0508 34.7917 98.3841 34.4115C97.7331 34.0365 97.0716 33.5677 96.3633 32.9844C95.2331 32.0521 94.2122 30.8594 93.4102 29.5417C93.1133 29.0573 92.8424 28.5261 92.5716 27.9011H89.8945C88.5924 27.9011 87.5352 26.8594 87.5352 25.5833C87.5352 24.3073 88.5924 23.2708 89.8945 23.2708H91.4206C91.4049 23.0677 91.3945 22.8698 91.3893 22.6771C91.3737 22.2396 91.3893 21.7761 91.4258 21.2813H89.8945C88.5924 21.2813 87.5352 20.2448 87.5352 18.9688C87.5352 17.6927 88.5924 16.6511 89.8945 16.6511H92.556C92.707 16.3073 92.8685 15.974 93.0352 15.6563C93.3633 15.0469 93.7435 14.4531 94.1654 13.9063C94.6029 13.3333 95.1393 12.6667 95.8008 12.0573C96.9883 10.9583 98.2643 10.1042 99.5872 9.53127C100.223 9.25522 101.061 8.91147 101.962 8.69272C102.785 8.49481 103.645 8.3646 104.52 8.31251C105.374 8.26043 106.29 8.3021 107.405 8.45314C108.27 8.57293 109.108 8.77606 109.9 9.06251C110.905 9.4271 111.759 9.82814 112.525 10.3021C113.327 10.7865 114.092 11.375 114.811 12.0365C115.243 12.4323 115.488 12.9896 115.504 13.6094C115.52 14.2552 115.275 14.8802 114.832 15.3229C114.4 15.7604 113.796 16.0104 113.181 16.0104C112.582 16.0104 112.03 15.7865 111.551 15.3438C111.379 15.1823 111.191 15.0208 110.973 14.849C110.337 14.375 109.65 13.9688 108.926 13.6458C108.165 13.3438 107.374 13.125 106.566 13C105.738 12.9063 104.895 12.9063 104.066 13C103.259 13.125 102.467 13.3438 101.707 13.6458C100.983 13.974 100.285 14.3802 99.6445 14.8594C99.0247 15.3594 98.4622 15.9323 97.9622 16.5521C97.9362 16.5833 97.9102 16.6198 97.8893 16.6511H104.884C106.186 16.6511 107.249 17.6927 107.249 18.9688C107.249 20.2448 106.186 21.2813 104.884 21.2813H96.0768C96.0195 21.9427 96.0195 22.6094 96.0768 23.2708H104.884C106.186 23.2708 107.249 24.3073 107.249 25.5833C107.249 26.8594 106.186 27.9011 104.884 27.9011H97.8893C97.9154 27.9323 97.9362 27.9636 97.9622 27.9948C98.4622 28.6198 99.0247 29.1875 99.6445 29.6875C100.285 30.1667 100.983 30.5729 101.707 30.9011C102.467 31.2031 103.259 31.4219 104.066 31.5469C104.895 31.6406 105.738 31.6406 106.566 31.5469C107.374 31.4219 108.171 31.2031 108.926 30.9011C109.65 30.5781 110.337 30.1719 110.978 29.7031C111.191 29.5261 111.379 29.3646 111.556 29.2031C112.035 28.7656 112.582 28.5417 113.181 28.5417C113.796 28.5417 114.4 28.7865 114.832 29.224C115.275 29.6667 115.52 30.2917 115.504 30.9375C115.488 31.5573 115.243 32.1146 114.811 32.5156C113.645 33.5938 112.395 34.4271 111.098 34.9948C110.03 35.4636 109.176 35.7552 108.322 35.9323C107.29 36.1511 106.285 36.2604 105.337 36.2604ZM89.8945 24.5313C89.3008 24.5313 88.8216 25.0052 88.8216 25.5833C88.8216 26.1667 89.3008 26.6406 89.8945 26.6406H93.431L93.5924 27.0365C93.8997 27.7761 94.1914 28.3698 94.5143 28.8958C95.2383 30.0938 96.1654 31.1771 97.1914 32.0208C97.8424 32.5573 98.4466 32.9844 99.0352 33.3281C99.6341 33.6719 100.311 33.9844 101.108 34.2761C102.389 34.75 103.842 35 105.322 35.0052C105.327 35.0052 105.332 35.0052 105.337 35.0052C106.197 35.0052 107.108 34.9011 108.051 34.7031C108.811 34.5417 109.592 34.2761 110.577 33.8438C111.738 33.3333 112.868 32.5781 113.931 31.5938C114.113 31.4323 114.212 31.1875 114.217 30.9115C114.228 30.6042 114.113 30.3021 113.915 30.1042C113.717 29.9115 113.452 29.7969 113.181 29.7969C112.915 29.7969 112.671 29.9063 112.431 30.1198C112.238 30.3021 112.025 30.4844 111.78 30.6823L111.759 30.6979C111.04 31.2292 110.264 31.6875 109.452 32.0521L109.426 32.0625C108.566 32.4063 107.671 32.6511 106.759 32.7969H106.728C105.79 32.9063 104.842 32.9063 103.905 32.7969H103.879C102.967 32.6511 102.066 32.4063 101.212 32.0625L101.186 32.0521C100.363 31.6823 99.582 31.224 98.8581 30.6823L98.8372 30.6667C98.1393 30.1042 97.5039 29.4636 96.9414 28.7656L96.9258 28.7448C96.6497 28.3698 96.3945 27.9792 96.1654 27.5781L95.6237 26.6406H104.884C105.478 26.6406 105.962 26.1667 105.962 25.5833C105.962 25.0052 105.478 24.5313 104.884 24.5313H94.9727L94.8789 24.0104C94.8633 23.9115 94.8477 23.8125 94.832 23.7136L94.8268 23.6875C94.7227 22.75 94.7227 21.7969 94.8268 20.8594L94.832 20.8333C94.8477 20.7396 94.8633 20.6406 94.8789 20.5417L94.9727 20.0208H104.884C105.478 20.0208 105.962 19.5469 105.962 18.9688C105.962 18.3854 105.478 17.9115 104.884 17.9115H95.6185L96.1602 16.9688C96.3893 16.5729 96.6497 16.1823 96.9258 15.8021L96.9414 15.7813C97.5039 15.0833 98.1393 14.4427 98.8372 13.8802L98.8581 13.8646C99.582 13.3229 100.363 12.8646 101.186 12.4948L101.212 12.4844C102.072 12.1406 102.967 11.8958 103.879 11.7552L103.905 11.75C104.842 11.6406 105.79 11.6406 106.728 11.75L106.759 11.7552C107.671 11.8958 108.566 12.1406 109.426 12.4844L109.447 12.4948C110.264 12.8594 111.04 13.3177 111.759 13.849L111.78 13.8646C112.025 14.0625 112.238 14.2448 112.431 14.4271C112.671 14.6458 112.915 14.75 113.181 14.75C113.452 14.75 113.717 14.6406 113.915 14.4427C114.113 14.2448 114.228 13.9427 114.217 13.6354C114.212 13.3594 114.113 13.1146 113.931 12.9531C113.275 12.349 112.572 11.8125 111.848 11.3698C111.155 10.9427 110.374 10.5781 109.457 10.2448C108.754 9.9896 108.004 9.80731 107.228 9.70314C106.186 9.56251 105.379 9.52085 104.603 9.56772C103.801 9.61981 103.02 9.73439 102.275 9.91668C101.473 10.1094 100.728 10.4115 100.108 10.6823C98.9154 11.1979 97.7643 11.9688 96.6862 12.9688C96.0924 13.5208 95.5977 14.1354 95.1914 14.6615C94.8112 15.1563 94.4674 15.6875 94.1758 16.2396C93.9622 16.6406 93.7643 17.0677 93.5872 17.5104L93.4258 17.9115H89.8945C89.3008 17.9115 88.8216 18.3854 88.8216 18.9688C88.8216 19.5469 89.3008 20.0208 89.8945 20.0208H92.8581L92.7747 20.724C92.6862 21.4375 92.6549 22.0625 92.6706 22.6354C92.681 23.0208 92.7122 23.4219 92.7643 23.8229L92.8529 24.5313H89.8945Z" fill="black"/>
</g>
<mask id="mask2_1_2968" style="mask-type:luminance" maskUnits="userSpaceOnUse" x="384" y="7" width="29" height="29">
<path d="M384.582 7.46881H412.228V35.2605H384.582V7.46881Z" fill="white"/>
</mask>
<g mask="url(#mask2_1_2968)">
<path d="M410.239 28.1667C409.78 28.1667 409.384 28.3542 409.051 28.6615C408.848 28.849 408.64 29.0261 408.431 29.1928C407.749 29.7032 407.015 30.1303 406.239 30.4792C405.426 30.8074 404.577 31.0365 403.713 31.1719C402.822 31.2761 401.926 31.2761 401.035 31.1719C400.171 31.0365 399.322 30.8074 398.509 30.4792C397.728 30.1303 396.989 29.6928 396.301 29.1824C395.64 28.6459 395.035 28.0417 394.504 27.3751C394.244 27.0209 393.999 26.6511 393.78 26.2709H401.942C402.89 26.2709 403.66 25.5157 403.66 24.5834C403.66 23.6563 402.89 22.9011 401.942 22.9011H392.572C392.551 22.8074 392.535 22.7136 392.525 22.6199C392.421 21.724 392.421 20.823 392.525 19.9324C392.535 19.8386 392.551 19.7449 392.567 19.6511H401.942C402.89 19.6511 403.66 18.8959 403.66 17.9688C403.66 17.0365 402.89 16.2813 401.942 16.2813H393.775C393.999 15.9011 394.244 15.5313 394.504 15.1719C395.035 14.5053 395.64 13.9011 396.301 13.3699C396.989 12.8542 397.728 12.4219 398.509 12.0678C399.322 11.7449 400.171 11.5105 401.035 11.3751C401.926 11.2761 402.822 11.2761 403.713 11.3751C404.577 11.5105 405.426 11.7449 406.239 12.0678C407.015 12.4167 407.749 12.849 408.431 13.3542C408.64 13.5261 408.848 13.698 409.051 13.8855C409.384 14.1928 409.78 14.3803 410.239 14.3803C410.681 14.3803 411.114 14.2032 411.431 13.8855C412.056 13.2553 412.103 12.1199 411.431 11.4949C410.759 10.8751 410.02 10.3126 409.244 9.83339C408.457 9.35423 407.603 8.96881 406.733 8.65631C405.973 8.38027 405.176 8.18756 404.374 8.07819C403.452 7.95319 402.546 7.88027 401.619 7.94277C400.796 7.99485 399.973 8.11464 399.176 8.30735C398.39 8.49485 397.645 8.78652 396.905 9.10944C395.577 9.68235 394.364 10.5313 393.301 11.5157C392.718 12.0521 392.218 12.6563 391.733 13.2865C391.332 13.8074 390.973 14.3646 390.66 14.948C390.431 15.3803 390.228 15.8282 390.046 16.2813H386.952C386.004 16.2813 385.233 17.0365 385.233 17.9688C385.233 18.9011 386.004 19.6511 386.952 19.6511H389.192C389.114 20.3178 389.067 20.9844 389.088 21.6563C389.098 22.073 389.129 22.4896 389.181 22.9011H386.952C386.004 22.9011 385.233 23.6563 385.233 24.5834C385.233 25.5157 386.004 26.2709 386.952 26.2709H390.056C390.332 26.9428 390.64 27.599 391.015 28.224C391.765 29.4532 392.723 30.5886 393.832 31.5053C394.442 32.0053 395.082 32.474 395.77 32.8699C396.457 33.2657 397.192 33.5886 397.937 33.8646C399.343 34.3855 400.879 34.6303 402.374 34.6355C403.338 34.6355 404.306 34.5157 405.244 34.3178C406.166 34.1251 407.035 33.7969 407.895 33.4219C409.192 32.849 410.384 32.0157 411.431 31.0574C412.103 30.4324 412.056 29.2969 411.431 28.6667C411.114 28.349 410.681 28.1667 410.239 28.1667Z" fill="black"/>
</g>
<mask id="mask3_1_2968" style="mask-type:luminance" maskUnits="userSpaceOnUse" x="384" y="7" width="29" height="29">
<path d="M384.582 7.26044H412.582V35.2604H384.582V7.26044Z" fill="white"/>
</mask>
<g mask="url(#mask3_1_2968)">
<path d="M402.395 35.2604C402.39 35.2604 402.379 35.2604 402.374 35.2604C400.744 35.2604 399.134 34.9792 397.713 34.4531C396.848 34.1354 396.103 33.7917 395.442 33.4115C394.791 33.0365 394.129 32.5677 393.421 31.9844C392.291 31.0521 391.265 29.8594 390.468 28.5417C390.171 28.0573 389.895 27.5261 389.624 26.9011H386.952C385.65 26.9011 384.593 25.8594 384.593 24.5833C384.593 23.3073 385.65 22.2708 386.952 22.2708H388.473C388.463 22.0677 388.452 21.8698 388.442 21.6771C388.431 21.2396 388.442 20.7761 388.483 20.2813H386.952C385.65 20.2813 384.593 19.2448 384.593 17.9688C384.593 16.6927 385.65 15.6511 386.952 15.6511H389.614C389.765 15.3073 389.926 14.974 390.093 14.6563C390.421 14.0469 390.801 13.4531 391.223 12.9063C391.66 12.3333 392.197 11.6667 392.858 11.0573C394.046 9.95835 395.317 9.10418 396.645 8.53127C397.275 8.25522 398.119 7.91147 399.02 7.69272C399.843 7.49481 400.702 7.3646 401.577 7.31251C402.426 7.26043 403.348 7.3021 404.457 7.45314C405.327 7.57293 406.166 7.77606 406.957 8.06251C407.957 8.4271 408.817 8.82814 409.582 9.3021C410.379 9.78647 411.15 10.375 411.869 11.0365C412.301 11.4323 412.546 11.9896 412.562 12.6094C412.572 13.2552 412.327 13.8802 411.89 14.3229C411.457 14.7604 410.853 15.0104 410.239 15.0104C409.634 15.0104 409.088 14.7865 408.608 14.3438C408.437 14.1823 408.249 14.0208 408.03 13.849C407.395 13.375 406.702 12.9688 405.983 12.6458C405.223 12.3438 404.431 12.125 403.624 12C402.796 11.9063 401.952 11.9063 401.124 12C400.317 12.125 399.525 12.3438 398.765 12.6458C398.035 12.974 397.343 13.3802 396.702 13.8594C396.082 14.3594 395.515 14.9323 395.02 15.5521C394.994 15.5833 394.968 15.6198 394.942 15.6511H401.942C403.244 15.6511 404.301 16.6927 404.301 17.9688C404.301 19.2448 403.244 20.2813 401.942 20.2813H393.134C393.077 20.9427 393.077 21.6094 393.134 22.2708H401.942C403.244 22.2708 404.301 23.3073 404.301 24.5833C404.301 25.8594 403.244 26.9011 401.942 26.9011H394.947C394.973 26.9323 394.994 26.9636 395.02 26.9948C395.515 27.6198 396.082 28.1875 396.702 28.6875C397.343 29.1667 398.035 29.5729 398.765 29.9011C399.525 30.2031 400.317 30.4219 401.124 30.5469C401.952 30.6406 402.796 30.6406 403.624 30.5469C404.431 30.4219 405.228 30.2031 405.983 29.9011C406.707 29.5781 407.395 29.1719 408.03 28.7031C408.249 28.5261 408.437 28.3646 408.608 28.2031C409.088 27.7656 409.64 27.5417 410.239 27.5417C410.853 27.5417 411.457 27.7865 411.89 28.224C412.327 28.6667 412.572 29.2917 412.562 29.9375C412.546 30.5573 412.301 31.1146 411.869 31.5156C410.697 32.5938 409.452 33.4271 408.155 33.9948C407.088 34.4636 406.228 34.7552 405.379 34.9323C404.343 35.1511 403.343 35.2604 402.395 35.2604ZM386.952 23.5313C386.358 23.5313 385.874 24.0052 385.874 24.5833C385.874 25.1667 386.358 25.6406 386.952 25.6406H390.489L390.65 26.0365C390.952 26.7761 391.244 27.3698 391.567 27.8958C392.296 29.0938 393.223 30.1771 394.249 31.0208C394.9 31.5573 395.504 31.9844 396.093 32.3281C396.692 32.6719 397.369 32.9844 398.166 33.2761C399.442 33.75 400.9 34 402.374 34.0052C402.384 34.0052 402.39 34.0052 402.395 34.0052C403.249 34.0052 404.166 33.9011 405.108 33.7031C405.869 33.5417 406.645 33.2761 407.629 32.8438C408.796 32.3333 409.926 31.5781 410.989 30.5938C411.166 30.4323 411.27 30.1875 411.275 29.9115C411.28 29.6042 411.166 29.3021 410.968 29.1042C410.775 28.9115 410.509 28.7969 410.239 28.7969C409.973 28.7969 409.728 28.9063 409.489 29.1198C409.291 29.3021 409.077 29.4844 408.838 29.6823L408.817 29.6979C408.098 30.2292 407.322 30.6875 406.504 31.0521L406.483 31.0625C405.624 31.4063 404.728 31.6511 403.812 31.7969H403.785C402.848 31.9063 401.9 31.9063 400.963 31.7969H400.937C400.025 31.6511 399.124 31.4063 398.27 31.0625L398.244 31.0521C397.421 30.6823 396.64 30.224 395.916 29.6823L395.895 29.6667C395.197 29.1042 394.562 28.4636 393.999 27.7656L393.983 27.7448C393.707 27.3698 393.452 26.9792 393.223 26.5781L392.676 25.6406H401.942C402.535 25.6406 403.02 25.1667 403.02 24.5833C403.02 24.0052 402.535 23.5313 401.942 23.5313H392.03L391.937 23.0104C391.921 22.9115 391.905 22.8125 391.89 22.7136L391.884 22.6875C391.78 21.75 391.78 20.7969 391.884 19.8594L391.89 19.8333C391.905 19.7396 391.921 19.6406 391.937 19.5417L392.03 19.0208H401.942C402.535 19.0208 403.02 18.5469 403.02 17.9688C403.02 17.3854 402.535 16.9115 401.942 16.9115H392.676L393.218 15.9688C393.447 15.5729 393.707 15.1823 393.983 14.8021L393.999 14.7813C394.562 14.0833 395.197 13.4427 395.895 12.8802L395.916 12.8646C396.64 12.3229 397.421 11.8646 398.244 11.4948L398.27 11.4844C399.124 11.1406 400.025 10.8958 400.937 10.7552L400.963 10.75C401.9 10.6406 402.848 10.6406 403.785 10.75L403.812 10.7552C404.728 10.8958 405.624 11.1406 406.478 11.4844L406.504 11.4948C407.322 11.8594 408.098 12.3177 408.817 12.849L408.838 12.8646C409.082 13.0625 409.296 13.2448 409.489 13.4271C409.728 13.6458 409.973 13.75 410.239 13.75C410.509 13.75 410.775 13.6406 410.968 13.4427C411.166 13.2448 411.28 12.9427 411.275 12.6354C411.27 12.3594 411.166 12.1146 410.989 11.9531C410.332 11.349 409.629 10.8125 408.9 10.3698C408.213 9.94272 407.431 9.57814 406.515 9.24481C405.806 8.9896 405.056 8.80731 404.285 8.70314C403.244 8.56251 402.431 8.52085 401.655 8.56772C400.858 8.61981 400.077 8.73439 399.327 8.91668C398.53 9.10939 397.785 9.41147 397.166 9.68231C395.973 10.1979 394.822 10.9688 393.744 11.9688C393.15 12.5208 392.655 13.1354 392.249 13.6615C391.869 14.1563 391.525 14.6875 391.233 15.2396C391.02 15.6406 390.822 16.0677 390.645 16.5104L390.483 16.9115H386.952C386.358 16.9115 385.874 17.3854 385.874 17.9688C385.874 18.5469 386.358 19.0208 386.952 19.0208H389.916L389.827 19.724C389.744 20.4375 389.713 21.0625 389.728 21.6354C389.739 22.0208 389.77 22.4219 389.822 22.8229L389.905 23.5313H386.952Z" fill="black"/>
</g>
<mask id="mask4_1_2968" style="mask-type:luminance" maskUnits="userSpaceOnUse" x="280" y="8" width="28" height="29">
<path d="M280.228 8.80219H307.806V36.2605H280.228V8.80219Z" fill="white"/>
</mask>
<g mask="url(#mask4_1_2968)">
<path d="M305.462 29.1668C304.998 29.1668 304.602 29.3543 304.269 29.6616C304.071 29.8491 303.863 30.0262 303.649 30.1928C302.967 30.7032 302.232 31.1303 301.456 31.4793C300.644 31.8074 299.795 32.0366 298.93 32.172C298.045 32.2762 297.144 32.2762 296.258 32.172C295.389 32.0366 294.545 31.8074 293.727 31.4793C292.946 31.1303 292.206 30.6928 291.519 30.1824C290.857 29.646 290.258 29.0418 289.722 28.3751C289.462 28.021 289.222 27.6512 288.998 27.271H297.16C298.113 27.271 298.883 26.5157 298.883 25.5835C298.883 24.6564 298.113 23.9012 297.16 23.9012H287.79C287.774 23.8074 287.758 23.7137 287.743 23.6199C287.644 22.7241 287.644 21.823 287.743 20.9324C287.758 20.8387 287.774 20.7449 287.79 20.6512H297.16C298.113 20.6512 298.883 19.896 298.883 18.9689C298.883 18.0366 298.113 17.2814 297.16 17.2814H288.998C289.217 16.9012 289.462 16.5314 289.722 16.172C290.258 15.5053 290.857 14.9012 291.524 14.3699C292.206 13.8543 292.951 13.422 293.732 13.0678C294.545 12.7449 295.394 12.5105 296.258 12.3751C297.144 12.2762 298.045 12.2762 298.93 12.3751C299.795 12.5105 300.644 12.7449 301.456 13.0678C302.232 13.4168 302.967 13.8491 303.649 14.3543C303.863 14.5262 304.071 14.698 304.269 14.8855C304.602 15.1928 304.998 15.3803 305.462 15.3803C305.904 15.3803 306.337 15.2032 306.649 14.8855C307.274 14.2553 307.326 13.1199 306.649 12.4949C305.977 11.8751 305.243 11.3126 304.462 10.8335C303.675 10.3543 302.821 9.96887 301.956 9.65637C301.191 9.38033 300.394 9.18762 299.592 9.07825C298.675 8.95325 297.764 8.88033 296.837 8.94283C296.019 8.99491 295.191 9.11471 294.394 9.30741C293.607 9.49491 292.863 9.78658 292.123 10.1095C290.795 10.6824 289.581 11.5314 288.519 12.5157C287.936 13.0522 287.436 13.6564 286.956 14.2866C286.55 14.8074 286.191 15.3647 285.883 15.948C285.654 16.3803 285.446 16.8282 285.264 17.2814H282.175C281.222 17.2814 280.451 18.0366 280.451 18.9689C280.451 19.9012 281.222 20.6512 282.175 20.6512H284.41C284.331 21.3178 284.285 21.9845 284.305 22.6564C284.316 23.073 284.352 23.4897 284.404 23.9012H282.175C281.222 23.9012 280.451 24.6564 280.451 25.5835C280.451 26.5157 281.222 27.271 282.175 27.271H285.274C285.55 27.9428 285.857 28.5991 286.238 29.2241C286.988 30.4532 287.941 31.5887 289.055 32.5053C289.665 33.0053 290.3 33.4741 290.988 33.8699C291.675 34.2657 292.415 34.5887 293.16 34.8647C294.566 35.3855 296.097 35.6303 297.597 35.6355C298.555 35.6355 299.524 35.5157 300.462 35.3178C301.383 35.1251 302.253 34.797 303.113 34.422C304.415 33.8491 305.602 33.0157 306.649 32.0574C307.326 31.4324 307.274 30.297 306.649 29.6668C306.337 29.3491 305.904 29.1668 305.462 29.1668Z" fill="black"/>
</g>
<mask id="mask5_1_2968" style="mask-type:luminance" maskUnits="userSpaceOnUse" x="279" y="8" width="29" height="29">
<path d="M279.806 8.26044H307.806V36.2604H279.806V8.26044Z" fill="white"/>
</mask>
<g mask="url(#mask5_1_2968)">
<path d="M297.613 36.2604C297.607 36.2604 297.602 36.2604 297.592 36.2604C295.967 36.2604 294.352 35.9792 292.93 35.4531C292.066 35.1354 291.326 34.7917 290.66 34.4115C290.008 34.0365 289.347 33.5677 288.639 32.9844C287.508 32.0521 286.488 30.8594 285.686 29.5417C285.389 29.0573 285.118 28.5261 284.847 27.9011H282.175C280.873 27.9011 279.811 26.8594 279.811 25.5833C279.811 24.3073 280.873 23.2708 282.175 23.2708H283.696C283.68 23.0677 283.67 22.8698 283.665 22.6771C283.649 22.2396 283.665 21.7761 283.701 21.2813H282.175C280.873 21.2813 279.811 20.2448 279.811 18.9688C279.811 17.6927 280.873 16.6511 282.175 16.6511H284.837C284.982 16.3073 285.144 15.974 285.311 15.6563C285.639 15.0469 286.019 14.4531 286.441 13.9063C286.878 13.3333 287.415 12.6667 288.076 12.0573C289.264 10.9583 290.54 10.1042 291.863 9.53127C292.498 9.25522 293.337 8.91147 294.238 8.69272C295.061 8.49481 295.92 8.3646 296.795 8.31251C297.649 8.26043 298.566 8.3021 299.68 8.45314C300.545 8.57293 301.389 8.77606 302.175 9.06251C303.18 9.4271 304.04 9.82814 304.8 10.3021C305.602 10.7865 306.368 11.375 307.087 12.0365C307.519 12.4323 307.764 12.9896 307.779 13.6094C307.795 14.2552 307.55 14.8802 307.107 15.3229C306.675 15.7604 306.076 16.0104 305.456 16.0104C304.857 16.0104 304.311 15.7865 303.831 15.3438C303.66 15.1823 303.467 15.0208 303.253 14.849C302.613 14.375 301.925 13.9688 301.201 13.6458C300.446 13.3438 299.649 13.125 298.842 13C298.014 12.9063 297.175 12.9063 296.342 13C295.54 13.125 294.743 13.3438 293.988 13.6458C293.258 13.974 292.561 14.3802 291.92 14.8594C291.3 15.3594 290.738 15.9323 290.238 16.5521C290.212 16.5833 290.186 16.6198 290.165 16.6511H297.16C298.462 16.6511 299.524 17.6927 299.524 18.9688C299.524 20.2448 298.462 21.2813 297.16 21.2813H288.352C288.295 21.9427 288.295 22.6094 288.352 23.2708H297.16C298.462 23.2708 299.524 24.3073 299.524 25.5833C299.524 26.8594 298.462 27.9011 297.16 27.9011H290.165C290.191 27.9323 290.212 27.9636 290.238 27.9948C290.738 28.6198 291.3 29.1875 291.92 29.6875C292.561 30.1667 293.258 30.5729 293.982 30.9011C294.743 31.2031 295.54 31.4219 296.342 31.5469C297.175 31.6406 298.014 31.6406 298.842 31.5469C299.654 31.4219 300.446 31.2031 301.201 30.9011C301.925 30.5781 302.613 30.1719 303.253 29.7031C303.467 29.5261 303.654 29.3646 303.831 29.2031C304.311 28.7656 304.857 28.5417 305.462 28.5417C306.076 28.5417 306.675 28.7865 307.107 29.224C307.55 29.6667 307.795 30.2917 307.779 30.9375C307.764 31.5573 307.519 32.1146 307.087 32.5156C305.92 33.5938 304.67 34.4271 303.378 34.9948C302.305 35.4636 301.451 35.7552 300.597 35.9323C299.566 36.1511 298.561 36.2604 297.613 36.2604ZM282.175 24.5313C281.581 24.5313 281.097 25.0052 281.097 25.5833C281.097 26.1667 281.581 26.6406 282.175 26.6406H285.712L285.873 27.0365C286.175 27.7761 286.467 28.3698 286.79 28.8958C287.519 30.0938 288.446 31.1771 289.467 32.0208C290.118 32.5573 290.722 32.9844 291.311 33.3281C291.915 33.6719 292.592 33.9844 293.383 34.2761C294.665 34.75 296.118 35 297.597 35.0052C297.602 35.0052 297.607 35.0052 297.613 35.0052C298.472 35.0052 299.383 34.9011 300.331 34.7031C301.087 34.5417 301.868 34.2761 302.852 33.8438C304.014 33.3333 305.144 32.5781 306.206 31.5938C306.389 31.4323 306.488 31.1875 306.493 30.9115C306.503 30.6042 306.389 30.3021 306.191 30.1042C305.998 29.9115 305.732 29.7969 305.462 29.7969C305.191 29.7969 304.946 29.9063 304.712 30.1198C304.514 30.3021 304.3 30.4844 304.055 30.6823L304.035 30.6979C303.316 31.2292 302.54 31.6875 301.727 32.0521L301.701 32.0625C300.847 32.4063 299.946 32.6511 299.035 32.7969H299.008C298.071 32.9063 297.118 32.9063 296.18 32.7969H296.154C295.243 32.6511 294.347 32.4063 293.488 32.0625L293.462 32.0521C292.639 31.6823 291.857 31.224 291.133 30.6823L291.113 30.6667C290.415 30.1042 289.779 29.4636 289.217 28.7656L289.206 28.7448C288.925 28.3698 288.67 27.9792 288.441 27.5781L287.899 26.6406H297.16C297.753 26.6406 298.238 26.1667 298.238 25.5833C298.238 25.0052 297.753 24.5313 297.16 24.5313H287.248L287.16 24.0104C287.139 23.9115 287.123 23.8125 287.107 23.7136L287.102 23.6875C286.998 22.75 286.998 21.7969 287.102 20.8594L287.107 20.8333C287.123 20.7396 287.139 20.6406 287.154 20.5417L287.248 20.0208H297.16C297.753 20.0208 298.238 19.5469 298.238 18.9688C298.238 18.3854 297.753 17.9115 297.16 17.9115H287.894L288.441 16.9688C288.67 16.5729 288.925 16.1823 289.206 15.8021L289.222 15.7813C289.779 15.0833 290.415 14.4427 291.113 13.8802L291.133 13.8646C291.857 13.3229 292.644 12.8646 293.462 12.4948L293.488 12.4844C294.347 12.1406 295.243 11.8958 296.154 11.7552L296.186 11.75C297.118 11.6406 298.071 11.6406 299.003 11.75L299.035 11.7552C299.946 11.8958 300.842 12.1406 301.701 12.4844L301.727 12.4948C302.54 12.8594 303.316 13.3177 304.035 13.849L304.055 13.8646C304.3 14.0625 304.514 14.2448 304.712 14.4271C304.946 14.6458 305.191 14.75 305.462 14.75C305.727 14.75 305.998 14.6406 306.191 14.4427C306.389 14.2448 306.503 13.9427 306.493 13.6354C306.488 13.3594 306.389 13.1146 306.206 12.9531C305.55 12.349 304.847 11.8125 304.123 11.3698C303.43 10.9427 302.649 10.5781 301.732 10.2448C301.029 9.9896 300.279 9.80731 299.503 9.70314C298.462 9.56251 297.654 9.52085 296.878 9.56772C296.081 9.61981 295.295 9.73439 294.55 9.91668C293.748 10.1094 293.003 10.4115 292.383 10.6823C291.191 11.1979 290.04 11.9688 288.962 12.9688C288.368 13.5208 287.873 14.1354 287.467 14.6615C287.087 15.1563 286.743 15.6875 286.451 16.2396C286.238 16.6406 286.04 17.0677 285.863 17.5104L285.701 17.9115H282.175C281.581 17.9115 281.097 18.3854 281.097 18.9688C281.097 19.5469 281.581 20.0208 282.175 20.0208H285.133L285.05 20.724C284.962 21.4375 284.93 22.0625 284.946 22.6354C284.962 23.0208 284.993 23.4219 285.04 23.8229L285.128 24.5313H282.175Z" fill="black"/>
</g>
</svg>
