<svg width="19" height="18" viewBox="0 0 19 18" fill="none" xmlns="http://www.w3.org/2000/svg">
<g clip-path="url(#clip0_376_13280)">
<path d="M17.3149 1.04148C16.8163 0.543651 16.1405 0.264038 15.4359 0.264038C14.7314 0.264038 14.0556 0.543651 13.557 1.04148L1.62912 12.9693C1.28754 13.309 1.01671 13.713 0.832286 14.158C0.647864 14.603 0.553516 15.0802 0.554698 15.5619V17.0675C0.554698 17.262 0.631966 17.4486 0.769504 17.5861C0.907041 17.7237 1.09358 17.8009 1.28809 17.8009H2.79374C3.2754 17.8023 3.75255 17.7081 4.19756 17.5238C4.64258 17.3395 5.04661 17.0687 5.38628 16.7272L17.3149 4.79864C17.8125 4.30008 18.0919 3.62445 18.0919 2.92006C18.0919 2.21566 17.8125 1.54004 17.3149 1.04148ZM4.34926 15.6902C3.93563 16.1011 3.37676 16.3325 2.79374 16.3341H2.02148V15.5619C2.02074 15.2729 2.07733 14.9866 2.18799 14.7195C2.29864 14.4525 2.46116 14.2101 2.66613 14.0064L11.7184 4.95412L13.4052 6.64092L4.34926 15.6902ZM16.2771 3.76162L14.4393 5.60023L12.7525 3.9171L14.5911 2.07849C14.7018 1.96798 14.8333 1.88036 14.9779 1.82064C15.1225 1.76092 15.2775 1.73027 15.4339 1.73044C15.5904 1.73061 15.7453 1.7616 15.8898 1.82163C16.0343 1.88166 16.1655 1.96957 16.276 2.08033C16.3865 2.19108 16.4742 2.32252 16.5339 2.46714C16.5936 2.61176 16.6242 2.76673 16.6241 2.92319C16.6239 3.07965 16.5929 3.23455 16.5329 3.37904C16.4729 3.52353 16.385 3.65478 16.2742 3.76529L16.2771 3.76162Z" fill="#004AAD"/>
</g>
<defs>
<clipPath id="clip0_376_13280">
<rect width="17.6014" height="17.6014" fill="white" transform="translate(0.554688 0.199524)"/>
</clipPath>
</defs>
</svg>
