<svg width="18" height="18" viewBox="0 0 18 18" fill="none" xmlns="http://www.w3.org/2000/svg">
<g clip-path="url(#clip0_376_13290)">
<path d="M9.02243 6.06647C8.44223 6.06647 7.87505 6.23852 7.39263 6.56086C6.91021 6.88321 6.53421 7.34137 6.31217 7.8774C6.09014 8.41344 6.03204 9.00328 6.14524 9.57234C6.25843 10.1414 6.53782 10.6641 6.94809 11.0744C7.35836 11.4846 7.88107 11.764 8.45012 11.8772C9.01918 11.9904 9.60902 11.9323 10.1451 11.7103C10.6811 11.4883 11.1393 11.1123 11.4616 10.6298C11.7839 10.1474 11.956 9.58023 11.956 9.00003C11.956 8.222 11.6469 7.47584 11.0968 6.92569C10.5466 6.37554 9.80046 6.06647 9.02243 6.06647ZM9.02243 10.4668C8.73233 10.4668 8.44874 10.3808 8.20753 10.2196C7.96632 10.0584 7.77832 9.82936 7.6673 9.56134C7.55628 9.29332 7.52724 8.9984 7.58383 8.71388C7.64043 8.42935 7.78013 8.16799 7.98526 7.96286C8.19039 7.75773 8.45175 7.61803 8.73628 7.56143C9.0208 7.50484 9.31573 7.53388 9.58374 7.6449C9.85176 7.75592 10.0808 7.94392 10.242 8.18513C10.4032 8.42634 10.4892 8.70993 10.4892 9.00003C10.4892 9.38904 10.3347 9.76213 10.0596 10.0372C9.78453 10.3123 9.41145 10.4668 9.02243 10.4668Z" fill="#004AAD"/>
<path d="M15.8378 10.3935L15.5122 10.2057C15.6588 9.40812 15.6588 8.59047 15.5122 7.79287L15.8378 7.60512C16.0882 7.46065 16.3077 7.26828 16.4838 7.03899C16.6599 6.80969 16.789 6.54797 16.8639 6.26875C16.9389 5.98953 16.958 5.69829 16.9204 5.41166C16.8828 5.12503 16.789 4.84863 16.6446 4.59822C16.5001 4.34781 16.3077 4.12831 16.0784 3.95225C15.8491 3.77619 15.5874 3.64702 15.3082 3.5721C15.029 3.49719 14.7377 3.47801 14.4511 3.51565C14.1645 3.55329 13.8881 3.64702 13.6377 3.79149L13.3113 3.97997C12.6949 3.45334 11.9865 3.04508 11.2219 2.77574V2.39951C11.2219 1.81599 10.9901 1.25637 10.5775 0.843756C10.1648 0.431144 9.60522 0.199341 9.0217 0.199341C8.43817 0.199341 7.87855 0.431144 7.46594 0.843756C7.05333 1.25637 6.82152 1.81599 6.82152 2.39951V2.77574C6.05688 3.04605 5.34876 3.4553 4.73283 3.9829L4.405 3.79296C3.89928 3.50119 3.29837 3.42228 2.73447 3.57357C2.17057 3.72486 1.68986 4.09397 1.3981 4.59969C1.10634 5.1054 1.02742 5.70631 1.17871 6.27022C1.33001 6.83412 1.69911 7.31483 2.20483 7.60659L2.53045 7.79434C2.38386 8.59194 2.38386 9.40959 2.53045 10.2072L2.20483 10.3949C1.69911 10.6867 1.33001 11.1674 1.17871 11.7313C1.02742 12.2952 1.10634 12.8961 1.3981 13.4018C1.68986 13.9076 2.17057 14.2767 2.73447 14.428C3.29837 14.5792 3.89928 14.5003 4.405 14.2086L4.73136 14.0201C5.34797 14.5468 6.05658 14.9551 6.82152 15.2243V15.6005C6.82152 16.1841 7.05333 16.7437 7.46594 17.1563C7.87855 17.5689 8.43817 17.8007 9.0217 17.8007C9.60522 17.8007 10.1648 17.5689 10.5775 17.1563C10.9901 16.7437 11.2219 16.1841 11.2219 15.6005V15.2243C11.9865 14.954 12.6946 14.5448 13.3106 14.0172L13.6384 14.2064C14.1441 14.4981 14.745 14.577 15.3089 14.4258C15.8728 14.2745 16.3535 13.9054 16.6453 13.3996C16.9371 12.8939 17.016 12.293 16.8647 11.7291C16.7134 11.1652 16.3443 10.6845 15.8386 10.3927L15.8378 10.3935ZM13.9691 7.62419C14.2175 8.52411 14.2175 9.47449 13.9691 10.3744C13.9258 10.531 13.9357 10.6976 13.9973 10.848C14.0589 10.9984 14.1687 11.1241 14.3094 11.2053L15.1044 11.6644C15.273 11.7617 15.396 11.9219 15.4464 12.1099C15.4968 12.2978 15.4705 12.4981 15.3732 12.6666C15.276 12.8352 15.1157 12.9582 14.9278 13.0086C14.7399 13.059 14.5396 13.0327 14.371 12.9354L13.5746 12.4748C13.4337 12.3932 13.2697 12.3608 13.1083 12.3827C12.947 12.4047 12.7975 12.4796 12.6835 12.5958C12.0307 13.2622 11.2084 13.7377 10.3051 13.971C10.1475 14.0115 10.0078 14.1033 9.90807 14.232C9.80835 14.3606 9.75427 14.5188 9.75435 14.6816V15.6005C9.75435 15.7951 9.67708 15.9816 9.53955 16.1191C9.40201 16.2567 9.21547 16.3339 9.02096 16.3339C8.82645 16.3339 8.63991 16.2567 8.50238 16.1191C8.36484 15.9816 8.28757 15.7951 8.28757 15.6005V14.6823C8.28765 14.5196 8.23357 14.3614 8.13386 14.2327C8.03414 14.104 7.89445 14.0122 7.73679 13.9717C6.83351 13.7375 6.01137 13.261 5.35914 12.5936C5.24512 12.4774 5.09566 12.4025 4.93433 12.3805C4.773 12.3586 4.60896 12.391 4.46807 12.4726L3.67308 12.9325C3.58964 12.9814 3.49735 13.0133 3.40152 13.0264C3.30569 13.0395 3.20822 13.0335 3.11471 13.0088C3.02121 12.9841 2.93351 12.9411 2.85668 12.8824C2.77985 12.8236 2.7154 12.7503 2.66704 12.6665C2.61868 12.5827 2.58736 12.4902 2.5749 12.3943C2.56243 12.2984 2.56906 12.201 2.5944 12.1076C2.61974 12.0143 2.66329 11.9269 2.72255 11.8504C2.78181 11.774 2.85561 11.71 2.93969 11.6622L3.73468 11.2031C3.87546 11.1219 3.98526 10.9962 4.04686 10.8458C4.10845 10.6954 4.11834 10.5288 4.07498 10.3722C3.82662 9.47229 3.82662 8.52191 4.07498 7.62199C4.11756 7.46569 4.1072 7.29969 4.0455 7.1499C3.98381 7.00011 3.87426 6.87496 3.73395 6.79399L2.93895 6.33489C2.77041 6.23763 2.64741 6.07741 2.597 5.88947C2.54659 5.70152 2.57291 5.50125 2.67017 5.33271C2.76742 5.16417 2.92764 5.04116 3.11559 4.99076C3.30353 4.94035 3.5038 4.96667 3.67234 5.06392L4.46881 5.52449C4.60931 5.60627 4.773 5.63906 4.93416 5.61768C5.09532 5.59631 5.24481 5.52199 5.35914 5.40641C6.01192 4.74001 6.8343 4.26454 7.73753 4.03131C7.89567 3.99065 8.03572 3.89838 8.13549 3.76912C8.23526 3.63986 8.28904 3.481 8.2883 3.31772V2.39951C8.2883 2.20501 8.36557 2.01846 8.50311 1.88093C8.64065 1.74339 8.82719 1.66612 9.0217 1.66612C9.2162 1.66612 9.40274 1.74339 9.54028 1.88093C9.67782 2.01846 9.75509 2.20501 9.75509 2.39951V3.31772C9.755 3.4805 9.80908 3.63868 9.9088 3.76735C10.0085 3.89601 10.1482 3.98784 10.3059 4.02837C11.2094 4.26244 12.0318 4.73894 12.6842 5.40641C12.7983 5.52263 12.9477 5.5976 13.1091 5.61951C13.2704 5.64142 13.4344 5.60902 13.5753 5.52742L14.3703 5.06759C14.4538 5.01867 14.546 4.98675 14.6419 4.97364C14.7377 4.96054 14.8352 4.96652 14.9287 4.99124C15.0222 5.01596 15.1099 5.05894 15.1867 5.11769C15.2635 5.17644 15.328 5.24981 15.3764 5.33357C15.4247 5.41733 15.456 5.50983 15.4685 5.60574C15.481 5.70166 15.4743 5.79909 15.449 5.89243C15.4236 5.98577 15.3801 6.07317 15.3208 6.14961C15.2616 6.22605 15.1878 6.29002 15.1037 6.33782L14.3087 6.79692C14.1687 6.87811 14.0594 7.00336 13.998 7.15313C13.9366 7.3029 13.9264 7.46878 13.9691 7.62492V7.62419Z" fill="#004AAD"/>
</g>
<defs>
<clipPath id="clip0_376_13290">
<rect width="17.6014" height="17.6014" fill="white" transform="translate(0.22168 0.199341)"/>
</clipPath>
</defs>
</svg>
