<svg width="36" height="36" viewBox="0 0 36 36" fill="none" xmlns="http://www.w3.org/2000/svg">
<path d="M3.77441 18.2733C3.77441 12.8254 3.77441 10.1007 5.46741 8.40899C7.15897 6.71582 9.88337 6.71582 15.3307 6.71582H21.1089C26.5562 6.71582 29.2806 6.71582 30.9722 8.40899C32.6652 10.1007 32.6652 12.8254 32.6652 18.2733V21.1626C32.6652 26.6105 32.6652 29.3352 30.9722 31.0269C29.2806 32.7201 26.5562 32.7201 21.1089 32.7201H15.3307C9.88337 32.7201 7.15897 32.7201 5.46741 31.0269C3.77441 29.3352 3.77441 26.6105 3.77441 21.1626V18.2733Z" stroke="#004AAD" stroke-opacity="0.3" stroke-width="2.88692"/>
<path opacity="0.5" d="M10.9965 6.71634V4.54932M25.4419 6.71634V4.54932M4.49609 13.9397H31.9423" stroke="#004AAD" stroke-opacity="0.3" stroke-width="2.88692" stroke-linecap="round"/>
<path d="M26.8872 25.4968C26.8872 25.88 26.735 26.2475 26.4641 26.5184C26.1932 26.7893 25.8258 26.9415 25.4427 26.9415C25.0596 26.9415 24.6921 26.7893 24.4212 26.5184C24.1503 26.2475 23.9981 25.88 23.9981 25.4968C23.9981 25.1137 24.1503 24.7462 24.4212 24.4753C24.6921 24.2044 25.0596 24.0522 25.4427 24.0522C25.8258 24.0522 26.1932 24.2044 26.4641 24.4753C26.735 24.7462 26.8872 25.1137 26.8872 25.4968ZM26.8872 19.7181C26.8872 20.1013 26.735 20.4687 26.4641 20.7397C26.1932 21.0106 25.8258 21.1628 25.4427 21.1628C25.0596 21.1628 24.6921 21.0106 24.4212 20.7397C24.1503 20.4687 23.9981 20.1013 23.9981 19.7181C23.9981 19.335 24.1503 18.9675 24.4212 18.6966C24.6921 18.4256 25.0596 18.2734 25.4427 18.2734C25.8258 18.2734 26.1932 18.4256 26.4641 18.6966C26.735 18.9675 26.8872 19.335 26.8872 19.7181ZM19.6645 25.4968C19.6645 25.88 19.5123 26.2475 19.2414 26.5184C18.9705 26.7893 18.6031 26.9415 18.22 26.9415C17.8369 26.9415 17.4694 26.7893 17.1985 26.5184C16.9276 26.2475 16.7754 25.88 16.7754 25.4968C16.7754 25.1137 16.9276 24.7462 17.1985 24.4753C17.4694 24.2044 17.8369 24.0522 18.22 24.0522C18.6031 24.0522 18.9705 24.2044 19.2414 24.4753C19.5123 24.7462 19.6645 25.1137 19.6645 25.4968ZM19.6645 19.7181C19.6645 20.1013 19.5123 20.4687 19.2414 20.7397C18.9705 21.0106 18.6031 21.1628 18.22 21.1628C17.8369 21.1628 17.4694 21.0106 17.1985 20.7397C16.9276 20.4687 16.7754 20.1013 16.7754 19.7181C16.7754 19.335 16.9276 18.9675 17.1985 18.6966C17.4694 18.4256 17.8369 18.2734 18.22 18.2734C18.6031 18.2734 18.9705 18.4256 19.2414 18.6966C19.5123 18.9675 19.6645 19.335 19.6645 19.7181ZM12.4418 25.4968C12.4418 25.88 12.2896 26.2475 12.0187 26.5184C11.7478 26.7893 11.3804 26.9415 10.9973 26.9415C10.6142 26.9415 10.2467 26.7893 9.97583 26.5184C9.70493 26.2475 9.55273 25.88 9.55273 25.4968C9.55273 25.1137 9.70493 24.7462 9.97583 24.4753C10.2467 24.2044 10.6142 24.0522 10.9973 24.0522C11.3804 24.0522 11.7478 24.2044 12.0187 24.4753C12.2896 24.7462 12.4418 25.1137 12.4418 25.4968ZM12.4418 19.7181C12.4418 20.1013 12.2896 20.4687 12.0187 20.7397C11.7478 21.0106 11.3804 21.1628 10.9973 21.1628C10.6142 21.1628 10.2467 21.0106 9.97583 20.7397C9.70493 20.4687 9.55273 20.1013 9.55273 19.7181C9.55273 19.335 9.70493 18.9675 9.97583 18.6966C10.2467 18.4256 10.6142 18.2734 10.9973 18.2734C11.3804 18.2734 11.7478 18.4256 12.0187 18.6966C12.2896 18.9675 12.4418 19.335 12.4418 19.7181Z" fill="#004AAD" fill-opacity="0.3"/>
</svg>
