<svg width="36" height="36" viewBox="0 0 36 36" fill="none" xmlns="http://www.w3.org/2000/svg">
<path d="M3.82813 18.2733C3.82813 12.8254 3.82812 10.1007 5.52112 8.40899C7.21268 6.71582 9.93708 6.71582 15.3844 6.71582H21.1626C26.61 6.71582 29.3344 6.71582 31.0259 8.40899C32.7189 10.1007 32.7189 12.8254 32.7189 18.2733V21.1626C32.7189 26.6105 32.7189 29.3352 31.0259 31.0269C29.3344 32.7201 26.61 32.7201 21.1626 32.7201H15.3844C9.93708 32.7201 7.21268 32.7201 5.52112 31.0269C3.82812 29.3352 3.82813 26.6105 3.82813 21.1626V18.2733Z" stroke="#004AAD" stroke-opacity="0.3" stroke-width="2.88692"/>
<path opacity="0.5" d="M11.0502 6.71585V4.54883M25.4956 6.71585V4.54883M4.5498 13.9393H31.9961" stroke="#004AAD" stroke-opacity="0.3" stroke-width="2.88692" stroke-linecap="round"/>
<path d="M26.9409 25.4968C26.9409 25.88 26.7887 26.2475 26.5178 26.5184C26.2469 26.7893 25.8795 26.9415 25.4964 26.9415C25.1133 26.9415 24.7458 26.7893 24.4749 26.5184C24.204 26.2475 24.0518 25.88 24.0518 25.4968C24.0518 25.1137 24.204 24.7462 24.4749 24.4753C24.7458 24.2044 25.1133 24.0522 25.4964 24.0522C25.8795 24.0522 26.2469 24.2044 26.5178 24.4753C26.7887 24.7462 26.9409 25.1137 26.9409 25.4968ZM26.9409 19.7181C26.9409 20.1013 26.7887 20.4687 26.5178 20.7397C26.2469 21.0106 25.8795 21.1628 25.4964 21.1628C25.1133 21.1628 24.7458 21.0106 24.4749 20.7397C24.204 20.4687 24.0518 20.1013 24.0518 19.7181C24.0518 19.335 24.204 18.9675 24.4749 18.6966C24.7458 18.4256 25.1133 18.2734 25.4964 18.2734C25.8795 18.2734 26.2469 18.4256 26.5178 18.6966C26.7887 18.9675 26.9409 19.335 26.9409 19.7181ZM19.7182 25.4968C19.7182 25.88 19.566 26.2475 19.2951 26.5184C19.0242 26.7893 18.6568 26.9415 18.2737 26.9415C17.8906 26.9415 17.5231 26.7893 17.2522 26.5184C16.9813 26.2475 16.8291 25.88 16.8291 25.4968C16.8291 25.1137 16.9813 24.7462 17.2522 24.4753C17.5231 24.2044 17.8906 24.0522 18.2737 24.0522C18.6568 24.0522 19.0242 24.2044 19.2951 24.4753C19.566 24.7462 19.7182 25.1137 19.7182 25.4968ZM19.7182 19.7181C19.7182 20.1013 19.566 20.4687 19.2951 20.7397C19.0242 21.0106 18.6568 21.1628 18.2737 21.1628C17.8906 21.1628 17.5231 21.0106 17.2522 20.7397C16.9813 20.4687 16.8291 20.1013 16.8291 19.7181C16.8291 19.335 16.9813 18.9675 17.2522 18.6966C17.5231 18.4256 17.8906 18.2734 18.2737 18.2734C18.6568 18.2734 19.0242 18.4256 19.2951 18.6966C19.566 18.9675 19.7182 19.335 19.7182 19.7181ZM12.4955 25.4968C12.4955 25.88 12.3433 26.2475 12.0724 26.5184C11.8015 26.7893 11.4341 26.9415 11.051 26.9415C10.6679 26.9415 10.3004 26.7893 10.0295 26.5184C9.75864 26.2475 9.60645 25.88 9.60645 25.4968C9.60645 25.1137 9.75864 24.7462 10.0295 24.4753C10.3004 24.2044 10.6679 24.0522 11.051 24.0522C11.4341 24.0522 11.8015 24.2044 12.0724 24.4753C12.3433 24.7462 12.4955 25.1137 12.4955 25.4968ZM12.4955 19.7181C12.4955 20.1013 12.3433 20.4687 12.0724 20.7397C11.8015 21.0106 11.4341 21.1628 11.051 21.1628C10.6679 21.1628 10.3004 21.0106 10.0295 20.7397C9.75864 20.4687 9.60645 20.1013 9.60645 19.7181C9.60645 19.335 9.75864 18.9675 10.0295 18.6966C10.3004 18.4256 10.6679 18.2734 11.051 18.2734C11.4341 18.2734 11.8015 18.4256 12.0724 18.6966C12.3433 18.9675 12.4955 19.335 12.4955 19.7181Z" fill="#004AAD" fill-opacity="0.3"/>
</svg>
